<svg width="125" height="30" viewBox="0 0 125 30" fill="none" xmlns="http://www.w3.org/2000/svg">
<g clip-path="url(#clip0_133_1503)">
<path d="M38.1052 21.456H46.8506V18.8219H41.2135V8.8999H38.1052V21.456Z" fill="white"/>
<path d="M52.0319 19.6998C50.7851 19.6998 50.1354 18.6111 50.1354 16.9779C50.1354 15.3447 50.7851 14.2384 52.0319 14.2384C53.2788 14.2384 53.9461 15.3447 53.9461 16.9779C53.9461 18.6111 53.2788 19.6998 52.0319 19.6998ZM52.0495 21.7369C54.9471 21.7369 56.8436 19.6823 56.8436 16.9779C56.8436 14.2735 54.9471 12.2189 52.0495 12.2189C49.1695 12.2189 47.2378 14.2735 47.2378 16.9779C47.2378 19.6823 49.1695 21.7369 52.0495 21.7369Z" fill="white"/>
<path d="M61.859 24.5643C63.1937 24.5643 64.3703 24.2658 65.1605 23.5634C65.8805 22.9136 66.3547 21.9302 66.3547 20.578V12.4648H63.6151V13.4307H63.58C63.0532 12.6756 62.2454 12.2014 61.0512 12.2014C58.821 12.2014 57.2756 14.0629 57.2756 16.697C57.2756 19.4541 59.1547 20.9643 61.1742 20.9643C62.263 20.9643 62.9478 20.5253 63.4747 19.9282H63.5449V20.8239C63.5449 21.9126 63.0356 22.5448 61.8239 22.5448C60.8756 22.5448 60.4015 22.1409 60.2434 21.6668H57.4688C57.7498 23.5458 59.383 24.5643 61.859 24.5643ZM61.8415 18.8395C60.7703 18.8395 60.0678 17.9614 60.0678 16.6092C60.0678 15.2395 60.7703 14.3614 61.8415 14.3614C63.0356 14.3614 63.6678 15.38 63.6678 16.5917C63.6678 17.8561 63.0883 18.8395 61.8415 18.8395Z" fill="white"/>
<path d="M71.9877 19.6998C70.7409 19.6998 70.0912 18.6111 70.0912 16.9779C70.0912 15.3447 70.7409 14.2384 71.9877 14.2384C73.2346 14.2384 73.9016 15.3447 73.9016 16.9779C73.9016 18.6111 73.2346 19.6998 71.9877 19.6998ZM72.0053 21.7369C74.9026 21.7369 76.7992 19.6823 76.7992 16.9779C76.7992 14.2735 74.9026 12.2189 72.0053 12.2189C69.1253 12.2189 67.1936 14.2735 67.1936 16.9779C67.1936 19.6823 69.1253 21.7369 72.0053 21.7369Z" fill="white"/>
<path d="M77.6355 21.456H80.4979V12.4648H77.6355V21.456ZM77.6355 11.218H80.4979V8.8999H77.6355V11.218Z" fill="white"/>
<path d="M81.7395 24.4239H84.6019V20.5253H84.6371C85.199 21.2804 86.0244 21.737 87.1834 21.737C89.5366 21.737 91.0995 19.8756 91.0995 16.9604C91.0995 14.256 89.6419 12.2014 87.2536 12.2014C86.0244 12.2014 85.1463 12.7458 84.5317 13.5536H84.479V12.4648H81.7395V24.4239ZM86.4458 19.5243C85.2166 19.5243 84.5141 18.5234 84.5141 17.0658C84.5141 15.6082 85.1463 14.5019 86.3932 14.5019C87.6224 14.5019 88.2019 15.5204 88.2019 17.0658C88.2019 18.5936 87.5346 19.5243 86.4458 19.5243Z" fill="white"/>
<path d="M95.7599 21.737C98.1131 21.737 99.8516 20.7185 99.8516 18.7517C99.8516 16.4512 97.9901 16.0473 96.4097 15.7839C95.2682 15.5731 94.2496 15.4853 94.2496 14.8531C94.2496 14.2912 94.794 14.0278 95.4965 14.0278C96.2867 14.0278 96.8311 14.2736 96.9365 15.0814H99.5706C99.4301 13.3078 98.0604 12.2014 95.514 12.2014C93.3892 12.2014 91.6331 13.1848 91.6331 15.0814C91.6331 17.1887 93.3014 17.6102 94.8643 17.8736C96.0584 18.0843 97.1472 18.1721 97.1472 18.98C97.1472 19.5595 96.6028 19.8756 95.7423 19.8756C94.794 19.8756 94.197 19.4365 94.0916 18.5409H91.3872C91.475 20.5253 93.1257 21.737 95.7599 21.737Z" fill="white"/>
<path d="M103.74 21.7194C104.987 21.7194 105.777 21.2276 106.427 20.3496H106.479V21.4559H109.219V12.4647H106.356V17.4872C106.356 18.5584 105.759 19.2959 104.776 19.2959C103.863 19.2959 103.424 18.7516 103.424 17.7681V12.4647H100.579V18.3652C100.579 20.3672 101.668 21.7194 103.74 21.7194Z" fill="white"/>
<path d="M110.464 21.4561H113.327V16.4161C113.327 15.3448 113.853 14.5897 114.749 14.5897C115.609 14.5897 116.013 15.1517 116.013 16.1175V21.4561H118.876V16.4161C118.876 15.3448 119.385 14.5897 120.298 14.5897C121.159 14.5897 121.563 15.1517 121.563 16.1175V21.4561H124.425V15.6082C124.425 13.5887 123.407 12.2014 121.369 12.2014C120.21 12.2014 119.245 12.6931 118.542 13.7819H118.507C118.05 12.8161 117.155 12.2014 115.978 12.2014C114.679 12.2014 113.818 12.8161 113.256 13.7468H113.204V12.4648H110.464V21.4561Z" fill="white"/>
<path fill-rule="evenodd" clip-rule="evenodd" d="M15.2935 29.5048C23.3758 29.5048 29.9277 22.9529 29.9277 14.8707C29.9277 6.7885 23.3758 0.236572 15.2935 0.236572C7.21134 0.236572 0.659424 6.7885 0.659424 14.8707C0.659424 22.9529 7.21134 29.5048 15.2935 29.5048ZM17.5523 11.5433C18.7997 10.2958 18.7997 8.27332 17.5523 7.02583C16.3048 5.77836 14.2823 5.77836 13.0348 7.02583C11.7874 8.27332 11.7874 10.2958 13.0348 11.5433L15.2935 13.802L17.5523 11.5433ZM18.621 17.1295C19.8685 18.377 21.891 18.377 23.1385 17.1295C24.3859 15.882 24.3859 13.8595 23.1385 12.612C21.891 11.3646 19.8685 11.3646 18.621 12.612L16.3623 14.8708L18.621 17.1295ZM17.5523 22.7156C18.7997 21.4681 18.7997 19.4456 17.5523 18.1981L15.2935 15.9394L13.0348 18.1981C11.7874 19.4456 11.7874 21.4681 13.0348 22.7156C14.2823 23.9631 16.3048 23.9631 17.5523 22.7156ZM7.44866 17.1295C6.20122 15.882 6.20122 13.8595 7.44866 12.612C8.69617 11.3646 10.7187 11.3646 11.9662 12.612L14.2249 14.8708L11.9662 17.1295C10.7187 18.377 8.69617 18.377 7.44866 17.1295Z" fill="white"/>
</g>
<defs>
<clipPath id="clip0_133_1503">
<rect width="124.39" height="30" fill="white" transform="translate(0.585205)"/>
</clipPath>
</defs>
</svg>
