<svg width="158" height="36" viewBox="0 0 158 36" fill="none" xmlns="http://www.w3.org/2000/svg">
<g clip-path="url(#clip0_131_1406)">
<path d="M18 0C27.9414 0 36 8.0586 36 18V30.6C36 32.0322 35.4311 33.4057 34.4184 34.4184C33.4057 35.4311 32.0322 36 30.6 36H18.9V28.1034C18.9 26.3016 19.0098 24.435 19.9548 22.9014C20.6314 21.8023 21.5364 20.8617 22.6085 20.1432C23.6806 19.4246 24.8947 18.9451 26.1684 18.7371L26.5131 18.6813C26.6552 18.6327 26.7786 18.5409 26.8659 18.4188C26.9533 18.2966 27.0002 18.1502 27.0002 18C27.0002 17.8498 26.9533 17.7034 26.8659 17.5812C26.7786 17.4591 26.6552 17.3673 26.5131 17.3187L26.1684 17.2629C24.3074 16.9589 22.5888 16.078 21.2554 14.7446C19.922 13.4112 19.0411 11.6926 18.7371 9.8316L18.6813 9.4869C18.6327 9.34479 18.5409 9.22143 18.4188 9.13408C18.2966 9.04673 18.1502 8.99977 18 8.99977C17.8498 8.99977 17.7034 9.04673 17.5812 9.13408C17.4591 9.22143 17.3673 9.34479 17.3187 9.4869L17.2629 9.8316C17.0549 11.1053 16.5754 12.3195 15.8569 13.3916C15.1384 14.4637 14.1977 15.3687 13.0986 16.0452C11.565 16.9902 9.69841 17.1 7.89661 17.1H0.0216064C0.492306 7.5771 8.36101 0 18 0Z" fill="#6436F1"/>
<path d="M0 18.9H7.8966C9.6984 18.9 11.565 19.0098 13.0986 19.9548C14.2974 20.6935 15.3065 21.7026 16.0452 22.9014C16.9902 24.435 17.1 26.3016 17.1 28.1034V36H5.4C3.96783 36 2.59432 35.4311 1.58162 34.4184C0.568927 33.4057 0 32.0322 0 30.6L0 18.9ZM36 1.8C36 2.27739 35.8104 2.73523 35.4728 3.07279C35.1352 3.41036 34.6774 3.6 34.2 3.6C33.7226 3.6 33.2648 3.41036 32.9272 3.07279C32.5896 2.73523 32.4 2.27739 32.4 1.8C32.4 1.32261 32.5896 0.864773 32.9272 0.527208C33.2648 0.189642 33.7226 0 34.2 0C34.6774 0 35.1352 0.189642 35.4728 0.527208C35.8104 0.864773 36 1.32261 36 1.8Z" fill="#6436F1"/>
</g>
<path d="M58.0591 22.64H53.0391L52.2591 25H48.1191L53.2991 10.9H57.8391L62.9991 25H58.8391L58.0591 22.64ZM57.0791 19.68L55.5591 15.08L54.0191 19.68H57.0791ZM71.6581 13.68C72.9515 13.68 73.9648 14.1133 74.6981 14.98C75.4315 15.8333 75.7981 17 75.7981 18.48V25H71.8981V18.98C71.8981 18.3267 71.7248 17.82 71.3781 17.46C71.0448 17.0867 70.5915 16.9 70.0181 16.9C69.4315 16.9 68.9648 17.0933 68.6181 17.48C68.2715 17.8533 68.0981 18.3733 68.0981 19.04V25H64.1581V13.78H68.0981V15.66C68.4181 15.06 68.8848 14.58 69.4981 14.22C70.1115 13.86 70.8315 13.68 71.6581 13.68ZM82.0486 13.64C82.8353 13.64 83.5153 13.8133 84.0886 14.16C84.6753 14.4933 85.1086 14.96 85.3886 15.56V13.78H89.3086V24.88C89.3086 25.92 89.1086 26.86 88.7086 27.7C88.3086 28.5533 87.6886 29.2333 86.8486 29.74C86.0086 30.2467 84.9486 30.5 83.6686 30.5C81.9219 30.5 80.5286 30.0933 79.4886 29.28C78.4619 28.4667 77.8619 27.3533 77.6886 25.94H81.5486C81.6419 26.3133 81.8419 26.6 82.1486 26.8C82.4553 27 82.8686 27.1 83.3886 27.1C84.7219 27.1 85.3886 26.36 85.3886 24.88V23.22C85.1086 23.82 84.6753 24.2933 84.0886 24.64C83.5153 24.9733 82.8353 25.14 82.0486 25.14C81.1553 25.14 80.3486 24.9133 79.6286 24.46C78.9086 23.9933 78.3419 23.3267 77.9286 22.46C77.5153 21.58 77.3086 20.5533 77.3086 19.38C77.3086 18.2067 77.5153 17.1867 77.9286 16.32C78.3419 15.4533 78.9086 14.7933 79.6286 14.34C80.3486 13.8733 81.1553 13.64 82.0486 13.64ZM83.3486 17.08C82.7353 17.08 82.2353 17.2867 81.8486 17.7C81.4753 18.1 81.2886 18.66 81.2886 19.38C81.2886 20.1133 81.4753 20.6867 81.8486 21.1C82.2353 21.5 82.7353 21.7 83.3486 21.7C83.9353 21.7 84.4219 21.4933 84.8086 21.08C85.1953 20.6667 85.3886 20.1 85.3886 19.38C85.3886 18.6733 85.1953 18.1133 84.8086 17.7C84.4219 17.2867 83.9353 17.08 83.3486 17.08ZM95.6228 13.64C96.4095 13.64 97.0895 13.8133 97.6628 14.16C98.2495 14.4933 98.6828 14.96 98.9628 15.56V13.78H102.883V24.88C102.883 25.92 102.683 26.86 102.283 27.7C101.883 28.5533 101.263 29.2333 100.423 29.74C99.5828 30.2467 98.5228 30.5 97.2428 30.5C95.4961 30.5 94.1028 30.0933 93.0628 29.28C92.0361 28.4667 91.4361 27.3533 91.2628 25.94H95.1228C95.2161 26.3133 95.4161 26.6 95.7228 26.8C96.0295 27 96.4428 27.1 96.9628 27.1C98.2961 27.1 98.9628 26.36 98.9628 24.88V23.22C98.6828 23.82 98.2495 24.2933 97.6628 24.64C97.0895 24.9733 96.4095 25.14 95.6228 25.14C94.7295 25.14 93.9228 24.9133 93.2028 24.46C92.4828 23.9933 91.9161 23.3267 91.5028 22.46C91.0895 21.58 90.8828 20.5533 90.8828 19.38C90.8828 18.2067 91.0895 17.1867 91.5028 16.32C91.9161 15.4533 92.4828 14.7933 93.2028 14.34C93.9228 13.8733 94.7295 13.64 95.6228 13.64ZM96.9228 17.08C96.3095 17.08 95.8095 17.2867 95.4228 17.7C95.0495 18.1 94.8628 18.66 94.8628 19.38C94.8628 20.1133 95.0495 20.6867 95.4228 21.1C95.8095 21.5 96.3095 21.7 96.9228 21.7C97.5095 21.7 97.9961 21.4933 98.3828 21.08C98.7695 20.6667 98.9628 20.1 98.9628 19.38C98.9628 18.6733 98.7695 18.1133 98.3828 17.7C97.9961 17.2867 97.5095 17.08 96.9228 17.08ZM109.197 13.64C109.984 13.64 110.664 13.8133 111.237 14.16C111.824 14.4933 112.257 14.96 112.537 15.56V13.78H116.457V25H112.537V23.22C112.257 23.82 111.824 24.2933 111.237 24.64C110.664 24.9733 109.984 25.14 109.197 25.14C108.304 25.14 107.497 24.9133 106.777 24.46C106.057 23.9933 105.49 23.3267 105.077 22.46C104.664 21.58 104.457 20.5533 104.457 19.38C104.457 18.2067 104.664 17.1867 105.077 16.32C105.49 15.4533 106.057 14.7933 106.777 14.34C107.497 13.8733 108.304 13.64 109.197 13.64ZM110.497 17.08C109.884 17.08 109.384 17.2867 108.997 17.7C108.624 18.1 108.437 18.66 108.437 19.38C108.437 20.1133 108.624 20.6867 108.997 21.1C109.384 21.5 109.884 21.7 110.497 21.7C111.084 21.7 111.57 21.4933 111.957 21.08C112.344 20.6667 112.537 20.1 112.537 19.38C112.537 18.6733 112.344 18.1133 111.957 17.7C111.57 17.2867 111.084 17.08 110.497 17.08ZM125.151 10.7C126.365 10.7 127.445 10.9267 128.391 11.38C129.351 11.82 130.131 12.4533 130.731 13.28C131.331 14.0933 131.738 15.04 131.951 16.12H127.811C127.585 15.56 127.231 15.1267 126.751 14.82C126.271 14.5 125.718 14.34 125.091 14.34C124.225 14.34 123.525 14.6667 122.991 15.32C122.458 15.96 122.191 16.82 122.191 17.9C122.191 18.98 122.458 19.8467 122.991 20.5C123.525 21.1533 124.225 21.48 125.091 21.48C125.718 21.48 126.271 21.32 126.751 21C127.231 20.68 127.585 20.24 127.811 19.68H131.951C131.631 21.3333 130.871 22.6533 129.671 23.64C128.485 24.6133 126.978 25.1 125.151 25.1C123.751 25.1 122.525 24.8 121.471 24.2C120.431 23.5867 119.625 22.7333 119.051 21.64C118.491 20.5467 118.211 19.3 118.211 17.9C118.211 16.5 118.491 15.2533 119.051 14.16C119.625 13.0667 120.431 12.22 121.471 11.62C122.525 11.0067 123.751 10.7 125.151 10.7ZM142.709 17.72C143.549 17.92 144.209 18.3333 144.689 18.96C145.182 19.5867 145.429 20.3133 145.429 21.14C145.429 22.3667 145.022 23.32 144.209 24C143.396 24.6667 142.229 25 140.709 25H133.709V10.84H140.549C141.976 10.84 143.089 11.1533 143.889 11.78C144.702 12.4067 145.109 13.3133 145.109 14.5C145.109 15.34 144.889 16.0467 144.449 16.62C144.009 17.18 143.429 17.5467 142.709 17.72ZM137.649 16.5H139.629C140.616 16.5 141.109 16.0867 141.109 15.26C141.109 14.4067 140.609 13.98 139.609 13.98H137.649V16.5ZM139.869 21.84C140.896 21.84 141.409 21.4133 141.409 20.56C141.409 19.68 140.896 19.24 139.869 19.24H137.649V21.84H139.869ZM157.748 10.84V13.98H153.928V25H150.008V13.98H146.228V10.84H157.748Z" fill="#0A090B"/>
<defs>
<clipPath id="clip0_131_1406">
<rect width="36" height="36" fill="white"/>
</clipPath>
</defs>
</svg>
