<svg width="61" height="30" viewBox="0 0 61 30" fill="none" xmlns="http://www.w3.org/2000/svg">
<g clip-path="url(#clip0_133_1536)">
<path d="M37.8857 21.456H46.6311V18.8219H40.994V8.8999H37.8857V21.456Z" fill="white"/>
<path d="M51.8125 19.6998C50.5656 19.6998 49.9159 18.6111 49.9159 16.9779C49.9159 15.3447 50.5656 14.2384 51.8125 14.2384C53.0593 14.2384 53.7266 15.3447 53.7266 16.9779C53.7266 18.6111 53.0593 19.6998 51.8125 19.6998ZM51.83 21.7369C54.7276 21.7369 56.6242 19.6823 56.6242 16.9779C56.6242 14.2735 54.7276 12.2189 51.83 12.2189C48.95 12.2189 47.0183 14.2735 47.0183 16.9779C47.0183 19.6823 48.95 21.7369 51.83 21.7369Z" fill="white"/>
<path d="M61.6396 24.5643C62.9742 24.5643 64.1508 24.2658 64.941 23.5634C65.661 22.9136 66.1352 21.9302 66.1352 20.578V12.4648H63.3957V13.4307H63.3605C62.8337 12.6756 62.0259 12.2014 60.8318 12.2014C58.6015 12.2014 57.0562 14.0629 57.0562 16.697C57.0562 19.4541 58.9352 20.9643 60.9547 20.9643C62.0435 20.9643 62.7283 20.5253 63.2552 19.9282H63.3254V20.8239C63.3254 21.9126 62.8162 22.5448 61.6044 22.5448C60.6562 22.5448 60.182 22.1409 60.024 21.6668H57.2493C57.5303 23.5458 59.1635 24.5643 61.6396 24.5643ZM61.622 18.8395C60.5508 18.8395 59.8483 17.9614 59.8483 16.6092C59.8483 15.2395 60.5508 14.3614 61.622 14.3614C62.8162 14.3614 63.4483 15.38 63.4483 16.5917C63.4483 17.8561 62.8688 18.8395 61.622 18.8395Z" fill="white"/>
<path fill-rule="evenodd" clip-rule="evenodd" d="M15.0741 29.5048C23.1563 29.5048 29.7082 22.9529 29.7082 14.8707C29.7082 6.7885 23.1563 0.236572 15.0741 0.236572C6.99186 0.236572 0.439941 6.7885 0.439941 14.8707C0.439941 22.9529 6.99186 29.5048 15.0741 29.5048ZM17.3328 11.5433C18.5803 10.2958 18.5803 8.27332 17.3328 7.02583C16.0854 5.77836 14.0628 5.77836 12.8153 7.02583C11.5679 8.27332 11.5679 10.2958 12.8153 11.5433L15.0741 13.802L17.3328 11.5433ZM18.4015 17.1295C19.649 18.377 21.6715 18.377 22.919 17.1295C24.1664 15.882 24.1664 13.8595 22.919 12.612C21.6715 11.3646 19.649 11.3646 18.4015 12.612L16.1428 14.8708L18.4015 17.1295ZM17.3328 22.7156C18.5803 21.4681 18.5803 19.4456 17.3328 18.1981L15.0741 15.9394L12.8153 18.1981C11.5679 19.4456 11.5679 21.4681 12.8153 22.7156C14.0628 23.9631 16.0854 23.9631 17.3328 22.7156ZM7.22918 17.1295C5.98174 15.882 5.98174 13.8595 7.22918 12.612C8.47669 11.3646 10.4992 11.3646 11.7467 12.612L14.0054 14.8708L11.7467 17.1295C10.4992 18.377 8.47669 18.377 7.22918 17.1295Z" fill="white"/>
</g>
<defs>
<clipPath id="clip0_133_1536">
<rect width="124.39" height="30" fill="white" transform="translate(0.365723)"/>
</clipPath>
</defs>
</svg>
