<svg width="125" height="30" viewBox="0 0 125 30" fill="none" xmlns="http://www.w3.org/2000/svg">
<g clip-path="url(#clip0_133_1492)">
<path d="M37.7152 21.456H46.4606V18.8219H40.8235V8.8999H37.7152V21.456Z" fill="white"/>
<path d="M51.6418 19.6998C50.395 19.6998 49.7452 18.6111 49.7452 16.9779C49.7452 15.3447 50.395 14.2384 51.6418 14.2384C52.8886 14.2384 53.5559 15.3447 53.5559 16.9779C53.5559 18.6111 52.8886 19.6998 51.6418 19.6998ZM51.6594 21.7369C54.5569 21.7369 56.4535 19.6823 56.4535 16.9779C56.4535 14.2735 54.5569 12.2189 51.6594 12.2189C48.7794 12.2189 46.8477 14.2735 46.8477 16.9779C46.8477 19.6823 48.7794 21.7369 51.6594 21.7369Z" fill="white"/>
<path d="M61.4689 24.5643C62.8035 24.5643 63.9801 24.2658 64.7704 23.5634C65.4904 22.9136 65.9645 21.9302 65.9645 20.578V12.4648H63.225V13.4307H63.1899C62.6631 12.6756 61.8553 12.2014 60.6611 12.2014C58.4309 12.2014 56.8855 14.0629 56.8855 16.697C56.8855 19.4541 58.7645 20.9643 60.784 20.9643C61.8728 20.9643 62.5577 20.5253 63.0845 19.9282H63.1548V20.8239C63.1548 21.9126 62.6455 22.5448 61.4338 22.5448C60.4855 22.5448 60.0114 22.1409 59.8533 21.6668H57.0787C57.3596 23.5458 58.9928 24.5643 61.4689 24.5643ZM61.4514 18.8395C60.3801 18.8395 59.6777 17.9614 59.6777 16.6092C59.6777 15.2395 60.3801 14.3614 61.4514 14.3614C62.6455 14.3614 63.2777 15.38 63.2777 16.5917C63.2777 17.8561 62.6982 18.8395 61.4514 18.8395Z" fill="white"/>
<path d="M71.5976 19.6998C70.3508 19.6998 69.701 18.6111 69.701 16.9779C69.701 15.3447 70.3508 14.2384 71.5976 14.2384C72.8444 14.2384 73.5115 15.3447 73.5115 16.9779C73.5115 18.6111 72.8444 19.6998 71.5976 19.6998ZM71.6152 21.7369C74.5124 21.7369 76.409 19.6823 76.409 16.9779C76.409 14.2735 74.5124 12.2189 71.6152 12.2189C68.7352 12.2189 66.8035 14.2735 66.8035 16.9779C66.8035 19.6823 68.7352 21.7369 71.6152 21.7369Z" fill="white"/>
<path d="M77.2454 21.456H80.1078V12.4648H77.2454V21.456ZM77.2454 11.218H80.1078V8.8999H77.2454V11.218Z" fill="white"/>
<path d="M81.3495 24.4239H84.2119V20.5253H84.247C84.809 21.2804 85.6344 21.737 86.7934 21.737C89.1466 21.737 90.7095 19.8756 90.7095 16.9604C90.7095 14.256 89.2519 12.2014 86.8636 12.2014C85.6344 12.2014 84.7563 12.7458 84.1417 13.5536H84.089V12.4648H81.3495V24.4239ZM86.0558 19.5243C84.8266 19.5243 84.1241 18.5234 84.1241 17.0658C84.1241 15.6082 84.7563 14.5019 86.0031 14.5019C87.2324 14.5019 87.8119 15.5204 87.8119 17.0658C87.8119 18.5936 87.1446 19.5243 86.0558 19.5243Z" fill="white"/>
<path d="M95.3698 21.737C97.7229 21.737 99.4615 20.7185 99.4615 18.7517C99.4615 16.4512 97.6 16.0473 96.0195 15.7839C94.8781 15.5731 93.8595 15.4853 93.8595 14.8531C93.8595 14.2912 94.4039 14.0278 95.1063 14.0278C95.8966 14.0278 96.441 14.2736 96.5463 15.0814H99.1805C99.04 13.3078 97.6702 12.2014 95.1239 12.2014C92.999 12.2014 91.2429 13.1848 91.2429 15.0814C91.2429 17.1887 92.9112 17.6102 94.4741 17.8736C95.6683 18.0843 96.7571 18.1721 96.7571 18.98C96.7571 19.5595 96.2127 19.8756 95.3522 19.8756C94.4039 19.8756 93.8068 19.4365 93.7015 18.5409H90.9971C91.0849 20.5253 92.7356 21.737 95.3698 21.737Z" fill="white"/>
<path d="M103.35 21.7194C104.597 21.7194 105.387 21.2276 106.037 20.3496H106.089V21.4559H108.829V12.4647H105.966V17.4872C105.966 18.5584 105.369 19.2959 104.386 19.2959C103.473 19.2959 103.034 18.7516 103.034 17.7681V12.4647H100.189V18.3652C100.189 20.3672 101.277 21.7194 103.35 21.7194Z" fill="white"/>
<path d="M110.074 21.4561H112.937V16.4161C112.937 15.3448 113.463 14.5897 114.359 14.5897C115.219 14.5897 115.623 15.1517 115.623 16.1175V21.4561H118.486V16.4161C118.486 15.3448 118.995 14.5897 119.908 14.5897C120.769 14.5897 121.173 15.1517 121.173 16.1175V21.4561H124.035V15.6082C124.035 13.5887 123.017 12.2014 120.979 12.2014C119.82 12.2014 118.855 12.6931 118.152 13.7819H118.117C117.66 12.8161 116.765 12.2014 115.588 12.2014C114.289 12.2014 113.428 12.8161 112.866 13.7468H112.814V12.4648H110.074V21.4561Z" fill="white"/>
<path fill-rule="evenodd" clip-rule="evenodd" d="M14.9034 29.5048C22.9857 29.5048 29.5375 22.9529 29.5375 14.8707C29.5375 6.7885 22.9857 0.236572 14.9034 0.236572C6.82121 0.236572 0.269287 6.7885 0.269287 14.8707C0.269287 22.9529 6.82121 29.5048 14.9034 29.5048ZM17.1622 11.5433C18.4096 10.2958 18.4096 8.27332 17.1622 7.02583C15.9147 5.77836 13.8922 5.77836 12.6447 7.02583C11.3973 8.27332 11.3973 10.2958 12.6447 11.5433L14.9034 13.802L17.1622 11.5433ZM18.2308 17.1295C19.4783 18.377 21.5008 18.377 22.7483 17.1295C23.9957 15.882 23.9957 13.8595 22.7483 12.612C21.5008 11.3646 19.4783 11.3646 18.2308 12.612L15.9721 14.8708L18.2308 17.1295ZM17.1622 22.7156C18.4096 21.4681 18.4096 19.4456 17.1622 18.1981L14.9034 15.9394L12.6447 18.1981C11.3973 19.4456 11.3973 21.4681 12.6447 22.7156C13.8922 23.9631 15.9147 23.9631 17.1622 22.7156ZM7.05853 17.1295C5.81108 15.882 5.81108 13.8595 7.05853 12.612C8.30604 11.3646 10.3285 11.3646 11.576 12.612L13.8347 14.8708L11.576 17.1295C10.3285 18.377 8.30604 18.377 7.05853 17.1295Z" fill="white"/>
</g>
<defs>
<clipPath id="clip0_133_1492">
<rect width="124.39" height="30" fill="white" transform="translate(0.195068)"/>
</clipPath>
</defs>
</svg>
