<svg width="124" height="30" viewBox="0 0 124 30" fill="none" xmlns="http://www.w3.org/2000/svg">
<path d="M36.5591 21.0685H45.3044V18.4344H39.6674V8.51245H36.5591V21.0685Z" fill="white"/>
<path d="M50.4858 19.3124C49.239 19.3124 48.5892 18.2236 48.5892 16.5904C48.5892 14.9573 49.239 13.8509 50.4858 13.8509C51.7326 13.8509 52.3999 14.9573 52.3999 16.5904C52.3999 18.2236 51.7326 19.3124 50.4858 19.3124ZM50.5034 21.3495C53.4009 21.3495 55.2975 19.2948 55.2975 16.5904C55.2975 13.8861 53.4009 11.8314 50.5034 11.8314C47.6234 11.8314 45.6917 13.8861 45.6917 16.5904C45.6917 19.2948 47.6234 21.3495 50.5034 21.3495Z" fill="white"/>
<path d="M60.3129 24.1768C61.6475 24.1768 62.8241 23.8782 63.6144 23.1758C64.3344 22.526 64.8085 21.5426 64.8085 20.1904V12.0773H62.069V13.0431H62.0339C61.5071 12.288 60.6993 11.8138 59.5051 11.8138C57.2749 11.8138 55.7295 13.6753 55.7295 16.3095C55.7295 19.0665 57.6085 20.5768 59.628 20.5768C60.7168 20.5768 61.4017 20.1377 61.9285 19.5407H61.9988V20.4363C61.9988 21.5251 61.4895 22.1573 60.2778 22.1573C59.3295 22.1573 58.8553 21.7534 58.6973 21.2792H55.9227C56.2036 23.1582 57.8368 24.1768 60.3129 24.1768ZM60.2953 18.4519C59.2241 18.4519 58.5217 17.5738 58.5217 16.2216C58.5217 14.8519 59.2241 13.9738 60.2953 13.9738C61.4895 13.9738 62.1217 14.9924 62.1217 16.2041C62.1217 17.4685 61.5422 18.4519 60.2953 18.4519Z" fill="white"/>
<path d="M70.4414 19.3124C69.1945 19.3124 68.5448 18.2236 68.5448 16.5904C68.5448 14.9573 69.1945 13.8509 70.4414 13.8509C71.6882 13.8509 72.3555 14.9573 72.3555 16.5904C72.3555 18.2236 71.6882 19.3124 70.4414 19.3124ZM70.4589 21.3495C73.3565 21.3495 75.2533 19.2948 75.2533 16.5904C75.2533 13.8861 73.3565 11.8314 70.4589 11.8314C67.5789 11.8314 65.6472 13.8861 65.6472 16.5904C65.6472 19.2948 67.5789 21.3495 70.4589 21.3495Z" fill="white"/>
<path d="M76.0891 21.0685H78.9516V12.0773H76.0891V21.0685ZM76.0891 10.8305H78.9516V8.51245H76.0891V10.8305Z" fill="white"/>
<path d="M80.1931 24.0363H83.0556V20.1377H83.0907C83.6526 20.8929 84.478 21.3495 85.637 21.3495C87.9902 21.3495 89.5531 19.488 89.5531 16.5729C89.5531 13.8685 88.0956 11.8138 85.7073 11.8138C84.478 11.8138 83.5999 12.3582 82.9853 13.166H82.9326V12.0773H80.1931V24.0363ZM84.8995 19.1368C83.6702 19.1368 82.9677 18.1358 82.9677 16.6782C82.9677 15.2207 83.5999 14.1143 84.8468 14.1143C86.076 14.1143 86.6556 15.1329 86.6556 16.6782C86.6556 18.206 85.9882 19.1368 84.8995 19.1368Z" fill="white"/>
<path d="M94.2142 21.3495C96.5674 21.3495 98.3059 20.3309 98.3059 18.3641C98.3059 16.0636 96.4445 15.6597 94.864 15.3963C93.7225 15.1856 92.704 15.0977 92.704 14.4656C92.704 13.9036 93.2484 13.6402 93.9508 13.6402C94.7411 13.6402 95.2855 13.886 95.3908 14.6938H98.025C97.8845 12.9202 96.5147 11.8138 93.9684 11.8138C91.8435 11.8138 90.0874 12.7973 90.0874 14.6938C90.0874 16.8012 91.7557 17.2226 93.3186 17.486C94.5128 17.6968 95.6016 17.7846 95.6016 18.5924C95.6016 19.1719 95.0572 19.488 94.1967 19.488C93.2484 19.488 92.6513 19.049 92.5459 18.1534H89.8416C89.9294 20.1377 91.5801 21.3495 94.2142 21.3495Z" fill="white"/>
<path d="M102.193 21.3319C103.44 21.3319 104.231 20.8402 104.88 19.9621H104.933V21.0685H107.672V12.0773H104.81V17.0997C104.81 18.1709 104.213 18.9085 103.23 18.9085C102.316 18.9085 101.877 18.3641 101.877 17.3807V12.0773H99.0325V17.9778C99.0325 19.9797 100.121 21.3319 102.193 21.3319Z" fill="white"/>
<path d="M108.918 21.0685H111.78V16.0285C111.78 14.9573 112.307 14.2021 113.203 14.2021C114.063 14.2021 114.467 14.7641 114.467 15.7299V21.0685H117.329V16.0285C117.329 14.9573 117.839 14.2021 118.752 14.2021C119.612 14.2021 120.016 14.7641 120.016 15.7299V21.0685H122.879V15.2207C122.879 13.2012 121.86 11.8138 119.823 11.8138C118.664 11.8138 117.698 12.3055 116.996 13.3943H116.961C116.504 12.4285 115.608 11.8138 114.432 11.8138C113.132 11.8138 112.272 12.4285 111.71 13.3592H111.657V12.0773H108.918V21.0685Z" fill="white"/>
<path fill-rule="evenodd" clip-rule="evenodd" d="M7.3079 2.84743C6.26108 3.5794 5.31447 4.44483 4.49272 5.41903C7.85075 5.10728 12.117 5.61634 17.0701 8.0929C22.3593 10.7374 26.6184 10.8268 29.5826 10.2551C29.3136 9.44078 28.9749 8.65814 28.5739 7.91414C25.1808 8.27202 20.8308 7.79831 15.7612 5.26361C12.542 3.654 9.70426 2.99094 7.3079 2.84743ZM26.5918 5.09288C23.9122 2.09899 20.0181 0.214844 15.6839 0.214844C14.4111 0.214844 13.1761 0.377361 11.9988 0.682756C13.5934 1.11783 15.2873 1.75435 17.0701 2.64577C20.7817 4.50157 23.9862 5.0991 26.5918 5.09288ZM30.2163 13.1134C26.6353 13.8206 21.6904 13.6753 15.7612 10.7107C10.2181 7.93917 5.80622 7.97407 2.83071 8.63531C2.67712 8.66941 2.52715 8.70526 2.3808 8.74258C1.99123 9.58983 1.68027 10.4808 1.45715 11.4059C1.69545 11.3423 1.9417 11.2818 2.19578 11.2253C5.80559 10.4231 10.9059 10.4579 17.0701 13.54C22.6133 16.3116 27.0251 16.2767 30.0007 15.6154C30.1026 15.5928 30.203 15.5694 30.3018 15.5453C30.3127 15.3146 30.3181 15.0824 30.3181 14.849C30.3181 14.2618 30.2835 13.6826 30.2163 13.1134ZM29.824 18.6336C26.2778 19.2536 21.4768 19.0156 15.7612 16.1578C10.2181 13.3863 5.80622 13.4212 2.83071 14.0824C2.17023 14.2291 1.57608 14.4079 1.05195 14.5966C1.05052 14.6805 1.0498 14.7647 1.0498 14.849C1.0498 22.9312 7.60172 29.4831 15.6839 29.4831C22.4574 29.4831 28.1561 24.8813 29.824 18.6336Z" fill="white"/>
</svg>
