<svg width="123" height="30" viewBox="0 0 123 30" fill="none" xmlns="http://www.w3.org/2000/svg">
<g clip-path="url(#clip0_133_1569)">
<path d="M35.7542 21.0685H44.4995V18.4344H38.8624V8.51245H35.7542V21.0685Z" fill="white"/>
<path d="M49.6809 19.3124C48.434 19.3124 47.7843 18.2236 47.7843 16.5904C47.7843 14.9573 48.434 13.8509 49.6809 13.8509C50.9277 13.8509 51.595 14.9573 51.595 16.5904C51.595 18.2236 50.9277 19.3124 49.6809 19.3124ZM49.6984 21.3495C52.596 21.3495 54.4926 19.2948 54.4926 16.5904C54.4926 13.8861 52.596 11.8314 49.6984 11.8314C46.8184 11.8314 44.8867 13.8861 44.8867 16.5904C44.8867 19.2948 46.8184 21.3495 49.6984 21.3495Z" fill="white"/>
<path d="M59.508 24.1768C60.8426 24.1768 62.0192 23.8782 62.8094 23.1758C63.5294 22.526 64.0036 21.5426 64.0036 20.1904V12.0773H61.2641V13.0431H61.2289C60.7021 12.288 59.8943 11.8138 58.7002 11.8138C56.4699 11.8138 54.9246 13.6753 54.9246 16.3095C54.9246 19.0665 56.8036 20.5768 58.8231 20.5768C59.9119 20.5768 60.5968 20.1377 61.1236 19.5407H61.1938V20.4363C61.1938 21.5251 60.6846 22.1573 59.4729 22.1573C58.5246 22.1573 58.0504 21.7534 57.8924 21.2792H55.1177C55.3987 23.1582 57.0319 24.1768 59.508 24.1768ZM59.4904 18.4519C58.4192 18.4519 57.7168 17.5738 57.7168 16.2216C57.7168 14.8519 58.4192 13.9738 59.4904 13.9738C60.6846 13.9738 61.3168 14.9924 61.3168 16.2041C61.3168 17.4685 60.7372 18.4519 59.4904 18.4519Z" fill="white"/>
<path d="M69.6364 19.3124C68.3896 19.3124 67.7399 18.2236 67.7399 16.5904C67.7399 14.9573 68.3896 13.8509 69.6364 13.8509C70.8833 13.8509 71.5506 14.9573 71.5506 16.5904C71.5506 18.2236 70.8833 19.3124 69.6364 19.3124ZM69.654 21.3495C72.5516 21.3495 74.4484 19.2948 74.4484 16.5904C74.4484 13.8861 72.5516 11.8314 69.654 11.8314C66.774 11.8314 64.8423 13.8861 64.8423 16.5904C64.8423 19.2948 66.774 21.3495 69.654 21.3495Z" fill="white"/>
<path d="M75.2842 21.0685H78.1466V12.0773H75.2842V21.0685ZM75.2842 10.8305H78.1466V8.51245H75.2842V10.8305Z" fill="white"/>
<path d="M79.3882 24.0363H82.2506V20.1377H82.2857C82.8477 20.8929 83.6731 21.3495 84.8321 21.3495C87.1853 21.3495 88.7482 19.488 88.7482 16.5729C88.7482 13.8685 87.2906 11.8138 84.9023 11.8138C83.6731 11.8138 82.795 12.3582 82.1804 13.166H82.1277V12.0773H79.3882V24.0363ZM84.0945 19.1368C82.8653 19.1368 82.1628 18.1358 82.1628 16.6782C82.1628 15.2207 82.795 14.1143 84.0418 14.1143C85.2711 14.1143 85.8506 15.1329 85.8506 16.6782C85.8506 18.206 85.1833 19.1368 84.0945 19.1368Z" fill="white"/>
<path d="M93.4093 21.3495C95.7625 21.3495 97.501 20.3309 97.501 18.3641C97.501 16.0636 95.6395 15.6597 94.0591 15.3963C92.9176 15.1856 91.8991 15.0977 91.8991 14.4656C91.8991 13.9036 92.4435 13.6402 93.1459 13.6402C93.9361 13.6402 94.4805 13.886 94.5859 14.6938H97.22C97.0796 12.9202 95.7098 11.8138 93.1635 11.8138C91.0386 11.8138 89.2825 12.7973 89.2825 14.6938C89.2825 16.8012 90.9508 17.2226 92.5137 17.486C93.7078 17.6968 94.7966 17.7846 94.7966 18.5924C94.7966 19.1719 94.2522 19.488 93.3917 19.488C92.4435 19.488 91.8464 19.049 91.741 18.1534H89.0366C89.1244 20.1377 90.7752 21.3495 93.4093 21.3495Z" fill="white"/>
<path d="M101.389 21.3319C102.635 21.3319 103.426 20.8402 104.075 19.9621H104.128V21.0685H106.868V12.0773H104.005V17.0997C104.005 18.1709 103.408 18.9085 102.425 18.9085C101.511 18.9085 101.072 18.3641 101.072 17.3807V12.0773H98.2275V17.9778C98.2275 19.9797 99.3163 21.3319 101.389 21.3319Z" fill="white"/>
<path d="M108.113 21.0685H110.975V16.0285C110.975 14.9573 111.502 14.2021 112.398 14.2021C113.258 14.2021 113.662 14.7641 113.662 15.7299V21.0685H116.525V16.0285C116.525 14.9573 117.034 14.2021 117.947 14.2021C118.807 14.2021 119.211 14.7641 119.211 15.7299V21.0685H122.074V15.2207C122.074 13.2012 121.055 11.8138 119.018 11.8138C117.859 11.8138 116.893 12.3055 116.191 13.3943H116.156C115.699 12.4285 114.804 11.8138 113.627 11.8138C112.327 11.8138 111.467 12.4285 110.905 13.3592H110.852V12.0773H108.113V21.0685Z" fill="white"/>
<path fill-rule="evenodd" clip-rule="evenodd" d="M6.50297 2.84743C5.45614 3.5794 4.50953 4.44483 3.68779 5.41903C7.04581 5.10728 11.3121 5.61634 16.2651 8.0929C21.5544 10.7374 25.8135 10.8268 28.7776 10.2551C28.5086 9.44078 28.17 8.65814 27.769 7.91414C24.3758 8.27202 20.0258 7.79831 14.9563 5.26361C11.737 3.654 8.89933 2.99094 6.50297 2.84743ZM25.7868 5.09288C23.1073 2.09899 19.2132 0.214844 14.879 0.214844C13.6062 0.214844 12.3712 0.377361 11.1939 0.682756C12.7884 1.11783 14.4823 1.75435 16.2651 2.64577C19.9768 4.50157 23.1812 5.0991 25.7868 5.09288ZM29.4114 13.1134C25.8304 13.8206 20.8854 13.6753 14.9563 10.7107C9.41314 7.93917 5.00129 7.97407 2.02578 8.63531C1.87219 8.66941 1.72222 8.70526 1.57587 8.74258C1.1863 9.58983 0.875337 10.4808 0.652216 11.4059C0.890521 11.3423 1.13677 11.2818 1.39084 11.2253C5.00066 10.4231 10.101 10.4579 16.2651 13.54C21.8083 16.3116 26.2202 16.2767 29.1957 15.6154C29.2976 15.5928 29.3981 15.5694 29.4969 15.5453C29.5077 15.3146 29.5131 15.0824 29.5131 14.849C29.5131 14.2618 29.4786 13.6826 29.4114 13.1134ZM29.0191 18.6336C25.4729 19.2536 20.6719 19.0156 14.9563 16.1578C9.41314 13.3863 5.00129 13.4212 2.02578 14.0824C1.3653 14.2291 0.771146 14.4079 0.247017 14.5966C0.245588 14.6805 0.244873 14.7647 0.244873 14.849C0.244873 22.9312 6.79679 29.4831 14.879 29.4831C21.6525 29.4831 27.3512 24.8813 29.0191 18.6336Z" fill="white"/>
</g>
<defs>
<clipPath id="clip0_133_1569">
<rect width="122.195" height="30" fill="white" transform="translate(0.170654)"/>
</clipPath>
</defs>
</svg>
