<svg width="24" height="25" viewBox="0 0 24 25" fill="none" xmlns="http://www.w3.org/2000/svg">
<path d="M8 2.5V5.5" stroke="#0A090B" stroke-width="2" stroke-miterlimit="10" stroke-linecap="round" stroke-linejoin="round"/>
<path d="M16 2.5V5.5" stroke="#0A090B" stroke-width="2" stroke-miterlimit="10" stroke-linecap="round" stroke-linejoin="round"/>
<path d="M3.5 9.58997H20.5" stroke="#0A090B" stroke-width="2" stroke-miterlimit="10" stroke-linecap="round" stroke-linejoin="round"/>
<path d="M18 23.5C20.2091 23.5 22 21.7091 22 19.5C22 17.2909 20.2091 15.5 18 15.5C15.7909 15.5 14 17.2909 14 19.5C14 21.7091 15.7909 23.5 18 23.5Z" stroke="#0A090B" stroke-width="2" stroke-miterlimit="10" stroke-linecap="round" stroke-linejoin="round"/>
<path d="M19.49 19.5499H16.51" stroke="#0A090B" stroke-width="2" stroke-miterlimit="10" stroke-linecap="round" stroke-linejoin="round"/>
<path d="M18 18.09V21.08" stroke="#0A090B" stroke-width="2" stroke-miterlimit="10" stroke-linecap="round" stroke-linejoin="round"/>
<path d="M21 9V16.86C20.27 16.03 19.2 15.5 18 15.5C15.79 15.5 14 17.29 14 19.5C14 20.25 14.21 20.96 14.58 21.56C14.79 21.92 15.06 22.24 15.37 22.5H8C4.5 22.5 3 20.5 3 17.5V9C3 6 4.5 4 8 4H16C19.5 4 21 6 21 9Z" stroke="#0A090B" stroke-width="2" stroke-miterlimit="10" stroke-linecap="round" stroke-linejoin="round"/>
<path d="M11.9955 14.2H12.0045" stroke="#0A090B" stroke-width="2" stroke-linecap="round" stroke-linejoin="round"/>
<path d="M8.29431 14.2H8.30329" stroke="#0A090B" stroke-width="2" stroke-linecap="round" stroke-linejoin="round"/>
<path d="M8.29431 17.2H8.30329" stroke="#0A090B" stroke-width="2" stroke-linecap="round" stroke-linejoin="round"/>
</svg>
