<svg width="20" height="21" viewBox="0 0 20 21" fill="none" xmlns="http://www.w3.org/2000/svg">
<path d="M13.9167 16.3167H6.08338C5.73338 16.3167 5.34171 16.0417 5.22504 15.7083L1.77504 6.05834C1.28338 4.67501 1.85838 4.25001 3.04171 5.10001L6.29171 7.42501C6.83338 7.80001 7.45004 7.60834 7.68338 7.00001L9.15004 3.09167C9.61671 1.84167 10.3917 1.84167 10.8584 3.09167L12.325 7.00001C12.5584 7.60834 13.175 7.80001 13.7084 7.42501L16.7584 5.25001C18.0584 4.31667 18.6834 4.79168 18.15 6.30001L14.7834 15.725C14.6584 16.0417 14.2667 16.3167 13.9167 16.3167Z" stroke="#0A090B" stroke-width="2" stroke-linecap="round" stroke-linejoin="round"/>
<path d="M5.41663 18.8334H14.5833" stroke="#0A090B" stroke-width="2" stroke-linecap="round" stroke-linejoin="round"/>
<path d="M7.91663 12.1666H12.0833" stroke="#0A090B" stroke-width="2" stroke-linecap="round" stroke-linejoin="round"/>
</svg>
