<svg width="50" height="50" viewBox="0 0 50 50" fill="none" xmlns="http://www.w3.org/2000/svg">
<circle cx="25" cy="25" r="25" fill="white"/>
<path opacity="0.4" d="M30.565 33.1433H19.435C18.945 33.1433 18.5017 32.8283 18.3384 32.3733L13.485 18.7817C13.1 17.6967 14.3367 16.775 15.2584 17.44L19.925 20.7767C20.5434 21.22 21.43 20.9517 21.6984 20.24L23.9034 14.36C24.2767 13.345 25.7117 13.345 26.085 14.36L28.29 20.24C28.5584 20.9633 29.4334 21.22 30.0634 20.7767L34.73 17.44C35.6634 16.775 36.8884 17.7083 36.5034 18.7817L31.65 32.3733C31.4984 32.8283 31.055 33.1433 30.565 33.1433Z" fill="#6436F1"/>
<path d="M30.8334 36.6667H19.1667C18.6884 36.6667 18.2917 36.27 18.2917 35.7917C18.2917 35.3134 18.6884 34.9167 19.1667 34.9167H30.8334C31.3117 34.9167 31.7084 35.3134 31.7084 35.7917C31.7084 36.27 31.3117 36.6667 30.8334 36.6667Z" fill="#6436F1"/>
<path d="M27.9166 28.2083H22.0833C21.6049 28.2083 21.2083 27.8116 21.2083 27.3333C21.2083 26.855 21.6049 26.4583 22.0833 26.4583H27.9166C28.3949 26.4583 28.7916 26.855 28.7916 27.3333C28.7916 27.8116 28.3949 28.2083 27.9166 28.2083Z" fill="#6436F1"/>
</svg>
