<svg width="71" height="70" viewBox="0 0 71 70" fill="none" xmlns="http://www.w3.org/2000/svg">
<circle cx="35.3335" cy="35" r="35" fill="#FFF2E6"/>
<path opacity="0.4" d="M44 21.5H26C22.685 21.5 20 24.17 20 27.455V42.545C20 45.83 22.685 48.5 26 48.5H44C47.315 48.5 50 45.83 50 42.545V27.455C50 24.17 47.315 21.5 44 21.5Z" fill="#F6770B"/>
<path d="M45.5 30.125H38C37.385 30.125 36.875 29.615 36.875 29C36.875 28.385 37.385 27.875 38 27.875H45.5C46.115 27.875 46.625 28.385 46.625 29C46.625 29.615 46.115 30.125 45.5 30.125Z" fill="#F6770B"/>
<path d="M45.5 36.125H39.5C38.885 36.125 38.375 35.615 38.375 35C38.375 34.385 38.885 33.875 39.5 33.875H45.5C46.115 33.875 46.625 34.385 46.625 35C46.625 35.615 46.115 36.125 45.5 36.125Z" fill="#F6770B"/>
<path d="M45.5 42.125H42.5C41.885 42.125 41.375 41.615 41.375 41C41.375 40.385 41.885 39.875 42.5 39.875H45.5C46.115 39.875 46.625 40.385 46.625 41C46.625 41.615 46.115 42.125 45.5 42.125Z" fill="#F6770B"/>
<path d="M29.7499 34.6849C31.6636 34.6849 33.2149 33.1335 33.2149 31.2199C33.2149 29.3062 31.6636 27.7549 29.7499 27.7549C27.8362 27.7549 26.2849 29.3062 26.2849 31.2199C26.2849 33.1335 27.8362 34.6849 29.7499 34.6849Z" fill="#F6770B"/>
<path d="M30.95 36.6649C30.155 36.5899 29.33 36.5899 28.535 36.6649C26.015 36.9049 23.99 38.8999 23.75 41.4199C23.735 41.6299 23.795 41.8399 23.945 41.9899C24.095 42.1399 24.29 42.2449 24.5 42.2449H35C35.21 42.2449 35.42 42.1549 35.555 42.0049C35.69 41.8549 35.765 41.6449 35.75 41.4349C35.495 38.8999 33.485 36.9049 30.95 36.6649Z" fill="#F6770B"/>
</svg>
