<svg width="70" height="70" viewBox="0 0 70 70" fill="none" xmlns="http://www.w3.org/2000/svg">
<circle cx="35" cy="35" r="35" fill="#EAE8FE"/>
<path d="M50 25.565V39.935C50 44.075 46.64 47.435 42.5 47.435H27.5C26.81 47.435 26.15 47.345 25.505 47.165C24.575 46.91 24.275 45.725 24.965 45.035L40.91 29.09C41.24 28.76 41.735 28.685 42.2 28.775C42.68 28.865 43.205 28.73 43.58 28.37L47.435 24.5C48.845 23.09 50 23.555 50 25.565Z" fill="#6436F1"/>
<path opacity="0.4" d="M38.96 28.04L23.255 43.745C22.535 44.465 21.335 44.285 20.855 43.385C20.3 42.365 20 41.18 20 39.935V25.565C20 23.555 21.155 23.09 22.565 24.5L26.435 28.385C27.02 28.955 27.98 28.955 28.565 28.385L33.935 23C34.52 22.415 35.48 22.415 36.065 23L38.975 25.91C39.545 26.495 39.545 27.455 38.96 28.04Z" fill="#6436F1"/>
</svg>
