<svg width="20" height="20" viewBox="0 0 20 20" fill="none" xmlns="http://www.w3.org/2000/svg">
<path d="M11.6667 4.16667C11.6667 3.25 10.9167 2.5 10.0001 2.5C9.08341 2.5 8.33341 3.25 8.33341 4.16667C8.33341 5.08333 9.08341 5.83333 10.0001 5.83333C10.9167 5.83333 11.6667 5.08333 11.6667 4.16667Z" stroke="#0A090B" stroke-width="2"/>
<path d="M11.6667 15.8333C11.6667 14.9166 10.9167 14.1666 10.0001 14.1666C9.08341 14.1666 8.33341 14.9166 8.33341 15.8333C8.33341 16.75 9.08341 17.5 10.0001 17.5C10.9167 17.5 11.6667 16.75 11.6667 15.8333Z" stroke="#0A090B" stroke-width="2"/>
<path d="M11.6667 10C11.6667 9.08337 10.9167 8.33337 10.0001 8.33337C9.08341 8.33337 8.33341 9.08337 8.33341 10C8.33341 10.9167 9.08341 11.6667 10.0001 11.6667C10.9167 11.6667 11.6667 10.9167 11.6667 10Z" stroke="#0A090B" stroke-width="2"/>
</svg>
