<svg width="21" height="21" viewBox="0 0 21 21" fill="none" xmlns="http://www.w3.org/2000/svg">
<path d="M6.66663 2.16663V4.66663" stroke="#0A090B" stroke-width="2" stroke-miterlimit="10" stroke-linecap="round" stroke-linejoin="round"/>
<path d="M13.3334 2.16663V4.66663" stroke="#0A090B" stroke-width="2" stroke-miterlimit="10" stroke-linecap="round" stroke-linejoin="round"/>
<path d="M17.5 7.58329V11.8583C16.7583 11.2666 15.8167 10.9166 14.7917 10.9166C13.7667 10.9166 12.8083 11.2749 12.0583 11.8833C11.05 12.6749 10.4167 13.9166 10.4167 15.2916C10.4167 16.1083 10.65 16.8916 11.05 17.5416C11.3583 18.05 11.7583 18.4916 12.2333 18.8333H6.66667C3.75 18.8333 2.5 17.1666 2.5 14.6666V7.58329C2.5 5.08329 3.75 3.41663 6.66667 3.41663H13.3333C16.25 3.41663 17.5 5.08329 17.5 7.58329Z" stroke="#0A090B" stroke-width="2" stroke-miterlimit="10" stroke-linecap="round" stroke-linejoin="round"/>
<path d="M5.83337 9.66663H10.8334" stroke="#0A090B" stroke-width="2" stroke-miterlimit="10" stroke-linecap="round" stroke-linejoin="round"/>
<path d="M5.83337 13.8334H8.0167" stroke="#0A090B" stroke-width="2" stroke-miterlimit="10" stroke-linecap="round" stroke-linejoin="round"/>
<path d="M19.1666 15.2916C19.1666 16.1083 18.9333 16.8916 18.5333 17.5416C18.3 17.9416 18.0083 18.2916 17.6666 18.575C16.9 19.2583 15.9 19.6666 14.7916 19.6666C13.8333 19.6666 12.95 19.3583 12.2333 18.8333C11.7583 18.4916 11.3583 18.05 11.05 17.5416C10.65 16.8916 10.4166 16.1083 10.4166 15.2916C10.4166 13.9166 11.05 12.6749 12.0583 11.8833C12.8083 11.2749 13.7666 10.9166 14.7916 10.9166C15.8166 10.9166 16.7583 11.2666 17.5 11.8583C18.5166 12.6583 19.1666 13.9 19.1666 15.2916Z" stroke="#0A090B" stroke-width="2" stroke-miterlimit="10" stroke-linecap="round" stroke-linejoin="round"/>
<path d="M14.7917 17.375C14.7917 16.225 15.725 15.2917 16.875 15.2917C15.725 15.2917 14.7917 14.3584 14.7917 13.2084C14.7917 14.3584 13.8584 15.2917 12.7084 15.2917C13.8584 15.2917 14.7917 16.225 14.7917 17.375Z" stroke="#0A090B" stroke-width="2" stroke-linecap="round" stroke-linejoin="round"/>
</svg>
