<svg width="71" height="70" viewBox="0 0 71 70" fill="none" xmlns="http://www.w3.org/2000/svg">
<circle cx="35.6667" cy="35" r="35" fill="#D5EFFE"/>
<path opacity="0.4" d="M48 29.375V44C48 48.5 45.315 50 42 50H30C26.685 50 24 48.5 24 44V29.375C24 24.5 26.685 23.375 30 23.375C30 24.305 30.375 25.145 30.99 25.76C31.605 26.375 32.445 26.75 33.375 26.75H38.625C40.485 26.75 42 25.235 42 23.375C45.315 23.375 48 24.5 48 29.375Z" fill="#2B82FE"/>
<path d="M42 23.375C42 25.235 40.485 26.75 38.625 26.75H33.375C32.445 26.75 31.605 26.375 30.99 25.76C30.375 25.145 30 24.305 30 23.375C30 21.515 31.515 20 33.375 20H38.625C39.555 20 40.395 20.375 41.01 20.99C41.625 21.605 42 22.445 42 23.375Z" fill="#2B82FE"/>
<path d="M36 37.625H30C29.385 37.625 28.875 37.115 28.875 36.5C28.875 35.885 29.385 35.375 30 35.375H36C36.615 35.375 37.125 35.885 37.125 36.5C37.125 37.115 36.615 37.625 36 37.625Z" fill="#2B82FE"/>
<path d="M42 43.625H30C29.385 43.625 28.875 43.115 28.875 42.5C28.875 41.885 29.385 41.375 30 41.375H42C42.615 41.375 43.125 41.885 43.125 42.5C43.125 43.115 42.615 43.625 42 43.625Z" fill="#2B82FE"/>
</svg>
