<svg width="24" height="25" viewBox="0 0 24 25" fill="none" xmlns="http://www.w3.org/2000/svg">
<path d="M9.16006 11.37C9.06006 11.36 8.94006 11.36 8.83006 11.37C6.45006 11.29 4.56006 9.34 4.56006 6.94C4.56006 4.49 6.54006 2.5 9.00006 2.5C11.4501 2.5 13.4401 4.49 13.4401 6.94C13.4301 9.34 11.5401 11.29 9.16006 11.37Z" stroke="#0A090B" stroke-width="2" stroke-linecap="round" stroke-linejoin="round"/>
<path d="M16.41 4.5C18.35 4.5 19.91 6.07 19.91 8C19.91 9.89 18.41 11.43 16.54 11.5C16.46 11.49 16.37 11.49 16.28 11.5" stroke="#0A090B" stroke-width="2" stroke-linecap="round" stroke-linejoin="round"/>
<path d="M4.15997 15.06C1.73997 16.68 1.73997 19.32 4.15997 20.93C6.90997 22.77 11.42 22.77 14.17 20.93C16.59 19.31 16.59 16.67 14.17 15.06C11.43 13.23 6.91997 13.23 4.15997 15.06Z" stroke="#0A090B" stroke-width="2" stroke-linecap="round" stroke-linejoin="round"/>
<path d="M18.3401 20.5C19.0601 20.35 19.7401 20.06 20.3001 19.63C21.8601 18.46 21.8601 16.53 20.3001 15.36C19.7501 14.94 19.0801 14.66 18.3701 14.5" stroke="#0A090B" stroke-width="2" stroke-linecap="round" stroke-linejoin="round"/>
</svg>
