<svg width="20" height="20" viewBox="0 0 20 20" fill="none" xmlns="http://www.w3.org/2000/svg">
<path d="M18.3333 4.99999V7.01666C18.3333 8.33332 17.4999 9.16666 16.1832 9.16666H13.3333V3.34166C13.3333 2.41666 14.0916 1.66666 15.0166 1.66666C15.9249 1.67499 16.7583 2.04166 17.3583 2.64166C17.9583 3.24999 18.3333 4.08332 18.3333 4.99999Z" stroke="#0A090B" stroke-width="2" stroke-miterlimit="10" stroke-linecap="round" stroke-linejoin="round"/>
<path d="M1.66675 5.83332V17.5C1.66675 18.1917 2.45006 18.5833 3.00006 18.1667L4.42508 17.1C4.75841 16.85 5.22509 16.8833 5.52509 17.1833L6.9084 18.575C7.2334 18.9 7.76677 18.9 8.09177 18.575L9.49176 17.175C9.78343 16.8833 10.2501 16.85 10.5751 17.1L12.0001 18.1667C12.5501 18.575 13.3334 18.1833 13.3334 17.5V3.33332C13.3334 2.41666 14.0834 1.66666 15.0001 1.66666H5.83341H5.00008C2.50008 1.66666 1.66675 3.15832 1.66675 4.99999V5.83332Z" stroke="#0A090B" stroke-width="2" stroke-miterlimit="10" stroke-linecap="round" stroke-linejoin="round"/>
<path d="M5 7.5H10" stroke="#0A090B" stroke-width="2" stroke-linecap="round" stroke-linejoin="round"/>
<path d="M5.625 10.8333H9.375" stroke="#0A090B" stroke-width="2" stroke-linecap="round" stroke-linejoin="round"/>
</svg>
