<svg width="24" height="24" viewBox="0 0 24 24" fill="none" xmlns="http://www.w3.org/2000/svg">
<path opacity="0.4" d="M20.9101 11.12C20.9101 16.01 17.3601 20.59 12.5101 21.93C12.1801 22.02 11.8201 22.02 11.4901 21.93C6.64008 20.59 3.09009 16.01 3.09009 11.12V6.73C3.09009 5.91 3.7101 4.98001 4.4801 4.67001L10.0501 2.39001C11.3001 1.88001 12.7101 1.88001 13.9601 2.39001L19.5301 4.67001C20.2901 4.98001 20.9201 5.91 20.9201 6.73L20.9101 11.12Z" fill="#A5ABB2"/>
<path d="M14.5 10.5C14.5 9.12 13.38 8 12 8C10.62 8 9.5 9.12 9.5 10.5C9.5 11.62 10.24 12.55 11.25 12.87V15.5C11.25 15.91 11.59 16.25 12 16.25C12.41 16.25 12.75 15.91 12.75 15.5V12.87C13.76 12.55 14.5 11.62 14.5 10.5Z" fill="#A5ABB2"/>
</svg>
